<svg width="897" height="908" viewBox="0 0 897 908" fill="none" xmlns="http://www.w3.org/2000/svg">
<g filter="url(#filter0_f_1_160)">
<path fill-rule="evenodd" clip-rule="evenodd" d="M339.739 420.049C376.025 426.138 410.301 429.93 442.015 448.837C489.173 476.951 556.835 497.421 562.205 552.675C567.597 608.15 503.636 640.243 464.408 679.247C425.872 717.564 393.583 777.114 339.739 773.873C286.441 770.665 265.571 704.598 229.023 665.081C194.593 627.855 141.472 603.336 135.16 552.675C128.394 498.372 151.517 437.17 196.956 407.713C238.808 380.581 290.748 411.827 339.739 420.049Z" fill="#F02A71"/>
<path fill-rule="evenodd" clip-rule="evenodd" d="M596.715 370.201C634.064 369.426 670.648 381.273 698.337 406.733C727.462 433.513 741.273 470.722 748.653 509.906C758.393 561.63 776.481 618.97 746.383 661.859C713.686 708.452 652.379 735.309 596.715 726.414C545.085 718.163 519.326 662.818 487.755 620.529C462.423 586.597 432.768 552.419 435.081 509.906C437.313 468.907 468.37 437.486 499.166 410.868C526.99 386.819 560.181 370.96 596.715 370.201Z" fill="#EDAAAA"/>
<path fill-rule="evenodd" clip-rule="evenodd" d="M410.646 134.023C462.102 135.029 499.426 177.508 537.105 213.101C576.952 250.743 636.979 286.652 630.268 341.49C623.599 395.994 555.201 412.67 509.157 441.504C478.126 460.936 446.977 475.918 410.646 479.021C369.857 482.506 325.229 486.789 294.035 459.88C261.231 431.582 253.777 385.116 251.21 341.49C248.434 294.299 250.579 245.332 279.223 208.06C311.26 166.371 358.574 133.005 410.646 134.023Z" fill="#DE83A7"/>
</g>
<defs>
<filter id="filter0_f_1_160" x="0.489655" y="0.489655" width="896.021" height="907.021" filterUnits="userSpaceOnUse" color-interpolation-filters="sRGB">
<feFlood flood-opacity="0" result="BackgroundImageFix"/>
<feBlend mode="normal" in="SourceGraphic" in2="BackgroundImageFix" result="shape"/>
<feGaussianBlur stdDeviation="66.7552" result="effect1_foregroundBlur_1_160"/>
</filter>
</defs>
</svg>
