<svg width="51" height="51" viewBox="0 0 51 51" fill="none" xmlns="http://www.w3.org/2000/svg">
<path d="M34.4531 0H10.5469C4.722 0 0 4.722 0 10.5469V34.4531C0 40.278 4.722 45 10.5469 45H34.4531C40.278 45 45 40.278 45 34.4531V10.5469C45 4.722 40.278 0 34.4531 0Z" fill="url(#paint0_radial_10_339)"/>
<path d="M34.4531 0H10.5469C4.722 0 0 4.722 0 10.5469V34.4531C0 40.278 4.722 45 10.5469 45H34.4531C40.278 45 45 40.278 45 34.4531V10.5469C45 4.722 40.278 0 34.4531 0Z" fill="url(#paint1_radial_10_339)"/>
<path d="M22.5011 4.92236C17.7272 4.92236 17.128 4.94328 15.2531 5.02854C13.3817 5.11432 12.1043 5.41051 10.9867 5.84521C9.83043 6.29416 8.84975 6.8948 7.87275 7.87215C6.89488 8.84932 6.29424 9.83 5.84389 10.9858C5.40795 12.1037 5.11141 13.3817 5.02721 15.2521C4.94336 17.1272 4.92139 17.7266 4.92139 22.5007C4.92139 27.2747 4.94248 27.872 5.02756 29.7469C5.11369 31.6183 5.40988 32.8957 5.84424 34.0133C6.29354 35.1696 6.89418 36.1503 7.87152 37.1272C8.84834 38.1051 9.82902 38.7072 10.9844 39.1561C12.1029 39.5908 13.3805 39.887 15.2515 39.9728C17.1266 40.058 17.7253 40.079 22.499 40.079C27.2734 40.079 27.8707 40.058 29.7456 39.9728C31.6169 39.887 32.8957 39.5908 34.0142 39.1561C35.17 38.7072 36.1493 38.1051 37.1259 37.1272C38.1038 36.1503 38.7043 35.1696 39.1548 34.0138C39.5869 32.8957 39.8836 31.6179 39.9715 29.7472C40.0557 27.8724 40.0776 27.2747 40.0776 22.5007C40.0776 17.7266 40.0557 17.1276 39.9715 15.2525C39.8836 13.3811 39.5869 12.1039 39.1548 10.9863C38.7043 9.83 38.1038 8.84932 37.1259 7.87215C36.1482 6.89445 35.1704 6.29381 34.0132 5.84539C32.8926 5.41051 31.6145 5.11414 29.7431 5.02854C27.868 4.94328 27.2711 4.92236 22.4956 4.92236H22.5011ZM20.9242 8.09012C21.3923 8.08941 21.9145 8.09012 22.5011 8.09012C27.1946 8.09012 27.7508 8.10699 29.6042 8.19119C31.3181 8.26959 32.2483 8.55594 32.868 8.79658C33.6883 9.1151 34.2732 9.49602 34.888 10.1114C35.5033 10.7267 35.884 11.3125 36.2034 12.1329C36.4441 12.7517 36.7308 13.6819 36.8088 15.3958C36.893 17.2488 36.9113 17.8054 36.9113 22.4966C36.9113 27.1879 36.893 27.7446 36.8088 29.5975C36.7304 31.3113 36.4441 32.2416 36.2034 32.8605C35.8849 33.6809 35.5033 34.265 34.888 34.8799C34.2728 35.4951 33.6887 35.8759 32.868 36.1946C32.249 36.4363 31.3181 36.7219 29.6042 36.8003C27.7512 36.8845 27.1946 36.9028 22.5011 36.9028C17.8074 36.9028 17.251 36.8845 15.3981 36.8003C13.6843 36.7212 12.754 36.4348 12.1339 36.1942C11.3137 35.8755 10.7276 35.4948 10.1124 34.8795C9.49715 34.2643 9.11641 33.6798 8.79701 32.8591C8.55637 32.2402 8.26967 31.3099 8.19162 29.5961C8.10742 27.743 8.09055 27.1865 8.09055 22.4922C8.09055 17.7982 8.10742 17.2445 8.19162 15.3914C8.27002 13.6775 8.55637 12.7473 8.79701 12.1276C9.1157 11.3073 9.49715 10.7214 10.1126 10.1062C10.7278 9.49092 11.3137 9.11 12.134 8.79078C12.7537 8.54908 13.6843 8.26344 15.3981 8.18469C17.0197 8.11139 17.6481 8.08941 20.9242 8.08572V8.09012ZM31.8843 11.0088C30.7197 11.0088 29.7749 11.9527 29.7749 13.1175C29.7749 14.282 30.7197 15.2268 31.8843 15.2268C33.0488 15.2268 33.9937 14.282 33.9937 13.1175C33.9937 11.9529 33.0488 11.0081 31.8843 11.0081V11.0088ZM22.5011 13.4734C17.5159 13.4734 13.474 17.5153 13.474 22.5007C13.474 27.486 17.5159 31.526 22.5011 31.526C27.4864 31.526 31.5269 27.486 31.5269 22.5007C31.5269 17.5155 27.4861 13.4734 22.5007 13.4734H22.5011ZM22.5011 16.6412C25.7371 16.6412 28.3606 19.2644 28.3606 22.5007C28.3606 25.7366 25.7371 28.3602 22.5011 28.3602C19.265 28.3602 16.6418 25.7366 16.6418 22.5007C16.6418 19.2644 19.265 16.6412 22.5011 16.6412Z" fill="white"/>
<defs>
<radialGradient id="paint0_radial_10_339" cx="0" cy="0" r="1" gradientUnits="userSpaceOnUse" gradientTransform="translate(11.9531 48.4659) rotate(-90) scale(44.5983 41.48)">
<stop stop-color="#FFDD55"/>
<stop offset="0.1" stop-color="#FFDD55"/>
<stop offset="0.5" stop-color="#FF543E"/>
<stop offset="1" stop-color="#C837AB"/>
</radialGradient>
<radialGradient id="paint1_radial_10_339" cx="0" cy="0" r="1" gradientUnits="userSpaceOnUse" gradientTransform="translate(-7.53768 3.24158) rotate(78.681) scale(19.9357 82.1756)">
<stop stop-color="#3771C8"/>
<stop offset="0.128" stop-color="#3771C8"/>
<stop offset="1" stop-color="#6600FF" stop-opacity="0"/>
</radialGradient>
</defs>
</svg>
