<svg width="45" height="45" viewBox="0 0 45 45" fill="none" xmlns="http://www.w3.org/2000/svg">
<g clip-path="url(#clip0_10_344)">
<path d="M34.4531 0H10.5469C4.722 0 0 4.722 0 10.5469V34.4531C0 40.278 4.722 45 10.5469 45H34.4531C40.278 45 45 40.278 45 34.4531V10.5469C45 4.722 40.278 0 34.4531 0Z" fill="white"/>
<path d="M34.4531 0H10.5469C4.722 0 0 4.722 0 10.5469V34.4531C0 40.278 4.722 45 10.5469 45H34.4531C40.278 45 45 40.278 45 34.4531V10.5469C45 4.722 40.278 0 34.4531 0Z" fill="#0A66C2"/>
<path d="M32.4689 38.2654H37.6141C37.8005 38.2654 37.9793 38.1914 38.1112 38.0596C38.243 37.9277 38.3171 37.7489 38.3172 37.5625L38.3198 26.6918C38.3198 21.01 37.0955 16.6428 30.4557 16.6428C27.9317 16.5489 25.5514 17.85 24.267 20.0227C24.2607 20.0332 24.2512 20.0414 24.2398 20.0461C24.2284 20.0507 24.2158 20.0514 24.204 20.0482C24.1921 20.045 24.1816 20.038 24.1741 20.0283C24.1666 20.0186 24.1625 20.0067 24.1624 19.9944V17.8704C24.1624 17.6839 24.0883 17.5051 23.9565 17.3732C23.8246 17.2414 23.6458 17.1673 23.4593 17.1673H18.5766C18.3901 17.1673 18.2113 17.2414 18.0794 17.3732C17.9476 17.5051 17.8735 17.6839 17.8735 17.8704V37.5614C17.8735 37.7479 17.9476 37.9267 18.0794 38.0586C18.2113 38.1905 18.3901 38.2645 18.5766 38.2645H23.7214C23.9078 38.2645 24.0867 38.1905 24.2186 38.0586C24.3504 37.9267 24.4245 37.7479 24.4245 37.5614V27.8279C24.4245 25.0757 24.9466 22.4103 28.3587 22.4103C31.7222 22.4103 31.7658 25.5596 31.7658 28.0061V37.5623C31.7658 37.7488 31.8399 37.9276 31.9718 38.0595C32.1036 38.1914 32.2825 38.2654 32.4689 38.2654ZM6.6792 10.4818C6.6792 12.5674 8.39605 14.2834 10.4817 14.2834C12.5668 14.2832 14.2826 12.5662 14.2826 10.4811C14.2823 8.39598 12.5663 6.68018 10.481 6.68018C8.39518 6.68018 6.6792 8.39633 6.6792 10.4818ZM7.90246 38.2654H13.0541C13.2406 38.2654 13.4194 38.1914 13.5513 38.0595C13.6831 37.9276 13.7572 37.7488 13.7572 37.5623V17.8704C13.7572 17.6839 13.6831 17.5051 13.5513 17.3732C13.4194 17.2414 13.2406 17.1673 13.0541 17.1673H7.90246C7.71598 17.1673 7.53714 17.2414 7.40528 17.3732C7.27342 17.5051 7.19934 17.6839 7.19934 17.8704V37.5623C7.19934 37.7488 7.27342 37.9276 7.40528 38.0595C7.53714 38.1914 7.71598 38.2654 7.90246 38.2654Z" fill="white"/>
</g>
<defs>
<clipPath id="clip0_10_344">
<rect width="45" height="45" fill="white"/>
</clipPath>
</defs>
</svg>
