<svg width="50" height="50" viewBox="0 0 50 50" fill="none" xmlns="http://www.w3.org/2000/svg">
<path d="M0 25C0 19.8303 3.49756 15.6233 7.79545 15.6233H20.1746C17.5138 12.0507 17.6307 6.16842 20.4734 2.74279C21.936 0.986458 23.9182 0 25.9848 0C28.0515 0 30.0337 0.986458 31.4962 2.74279L50 25L31.4962 47.2572C30.0337 49.0135 28.0515 50 25.9848 50C23.9182 50 21.936 49.0135 20.4734 47.2572C17.6281 43.8378 17.5112 37.9461 20.1746 34.3767H7.79545C3.49756 34.3767 0 30.1697 0 25ZM32.7045 21.8744H7.79545C7.12639 21.9104 6.49466 22.2555 6.0318 22.8377C5.56893 23.4199 5.3106 24.1944 5.3106 25C5.3106 25.8056 5.56893 26.5801 6.0318 27.1623C6.49466 27.7445 7.12639 28.0896 7.79545 28.1256H32.7045L24.1477 38.4181C23.6747 39.0131 23.4107 39.8046 23.4107 40.6279C23.4107 41.4511 23.6747 42.2426 24.1477 42.8376C24.3888 43.1282 24.6752 43.3586 24.9904 43.5159C25.3056 43.6731 25.6436 43.7541 25.9848 43.7541C26.3261 43.7541 26.664 43.6731 26.9792 43.5159C27.2945 43.3586 27.5808 43.1282 27.822 42.8376L42.6515 25L27.822 7.16235C27.5808 6.87184 27.2945 6.64137 26.9792 6.48412C26.664 6.32687 26.3261 6.24593 25.9848 6.24593C25.6436 6.24593 25.3056 6.32687 24.9904 6.48412C24.6752 6.64137 24.3888 6.87184 24.1477 7.16235C23.6747 7.75736 23.4107 8.54888 23.4107 9.37213C23.4107 10.1954 23.6747 10.9869 24.1477 11.5819L32.7045 21.8744Z" fill="#D15385"/>
</svg>
