<svg width="50" height="50" viewBox="0 0 50 50" fill="none" xmlns="http://www.w3.org/2000/svg">
<path d="M50 25C50 30.1697 46.5024 34.3767 42.2046 34.3767H29.8254C32.4862 37.9493 32.3693 43.8316 29.5266 47.2572C28.064 49.0135 26.0818 50 24.0152 50C21.9485 50 19.9663 49.0135 18.5038 47.2572L0 25L18.5038 2.74279C19.9663 0.986462 21.9485 0 24.0152 0C26.0818 0 28.064 0.986462 29.5266 2.74279C32.3719 6.16217 32.4888 12.0539 29.8254 15.6233H42.2046C46.5024 15.6233 50 19.8303 50 25ZM17.2955 28.1256H42.2046C42.8736 28.0896 43.5053 27.7445 43.9682 27.1623C44.4311 26.5801 44.6894 25.8056 44.6894 25C44.6894 24.1944 44.4311 23.4199 43.9682 22.8377C43.5053 22.2555 42.8736 21.9104 42.2046 21.8744H17.2955L25.8523 11.5819C26.3253 10.9869 26.5893 10.1954 26.5893 9.37214C26.5893 8.54889 26.3253 7.75736 25.8523 7.16235C25.6112 6.87185 25.3248 6.64138 25.0096 6.48413C24.6944 6.32687 24.3564 6.24594 24.0152 6.24594C23.6739 6.24594 23.336 6.32687 23.0208 6.48413C22.7055 6.64138 22.4192 6.87185 22.178 7.16235L7.34851 25L22.178 42.8376C22.4192 43.1282 22.7055 43.3586 23.0208 43.5159C23.336 43.6731 23.6739 43.7541 24.0152 43.7541C24.3564 43.7541 24.6944 43.6731 25.0096 43.5159C25.3248 43.3586 25.6112 43.1282 25.8523 42.8376C26.3253 42.2426 26.5893 41.4511 26.5893 40.6279C26.5893 39.8046 26.3253 39.0131 25.8523 38.4181L17.2955 28.1256Z" fill="#D15385"/>
</svg>
