<svg width="45" height="45" viewBox="0 0 45 45" fill="none" xmlns="http://www.w3.org/2000/svg">
<path d="M45 5.327C43.3149 6.24556 41.5276 6.84851 39.6974 7.11578C41.6037 5.70984 43.0675 3.48348 43.7567 0.830802C41.9445 2.15408 39.9618 3.08642 37.8942 3.58752C36.2101 1.37977 33.8108 0 31.1553 0C26.0566 0 21.9227 5.08647 21.9227 11.36C21.9227 12.2505 22.0045 13.1174 22.1618 13.9491C14.4889 13.4752 7.68621 8.95259 3.1326 2.07949C2.33807 3.75732 1.88279 5.70898 1.88279 7.79063C1.88279 11.732 3.51281 15.209 5.98992 17.2463C4.52382 17.1898 3.08997 16.7026 1.80809 15.8253C1.80756 15.8728 1.80756 15.9204 1.80756 15.9682C1.80756 21.4724 4.9899 26.0639 9.21322 27.1076C7.85371 27.5626 6.42767 27.6291 5.04404 27.3023C6.21879 31.8155 9.62842 35.0998 13.6682 35.1917C10.5086 38.2385 6.52764 40.0548 2.20236 40.0548C1.45705 40.0548 0.722285 40.0009 0 39.896C4.08568 43.1193 8.93848 45 14.1521 45C31.1338 45 40.4198 27.6894 40.4198 12.6775C40.4198 12.1847 40.4111 11.6948 40.3931 11.2077C42.2006 9.59994 43.7606 7.60854 45 5.327Z" fill="#55ACEE"/>
</svg>
